# Blender v2.83.2 OBJ File: 'robot.blend'
# www.blender.org
mtllib robot_small.mtl
o Plane_Plane.001
v -0.115025 -0.246761 -0.009776
v 0.132521 -0.243339 0.000343
v 0.245000 -0.122495 0.000000
v 0.246610 0.107060 -0.000997
v -0.244938 -0.107179 0.000967
v 0.120904 0.245032 0.003517
v -0.108574 0.246664 -0.000834
v -0.245000 0.115126 0.000000
vn -0.0414 0.0413 0.9983
vn 0.0021 0.0043 1.0000
vn -0.0193 -0.0502 0.9986
vn 0.0019 0.0044 1.0000
vn -0.0004 -0.0771 0.9970
usemtl Default_OBJ.001
s off
f 1//1 2//1 3//1
f 3//2 4//2 5//2
f 4//3 6//3 7//3
f 5//4 7//4 8//4
f 4//2 7//2 5//2
f 5//5 1//5 3//5
